<svg width="16" height="16" viewBox="0 0 16 16" fill="none" xmlns="http://www.w3.org/2000/svg">
<path d="M10.5 4.75C10.0625 1.96875 8.96875 0 7.75 0C6.5 0 5.4375 1.96875 4.96875 4.75H10.5ZM4.75 7.75C4.75 8.46875 4.78125 9.125 4.84375 9.75H10.625C10.6875 9.125 10.7188 8.46875 10.7188 7.75C10.7188 7.0625 10.6875 6.40625 10.625 5.75H4.84375C4.78125 6.40625 4.75 7.0625 4.75 7.75ZM14.875 4.75C14 2.65625 12.1875 1 9.9375 0.34375C10.7188 1.40625 11.2188 3 11.5 4.75H14.875ZM5.53125 0.34375C3.28125 1 1.46875 2.65625 0.59375 4.75H3.96875C4.25 3 4.75 1.40625 5.53125 0.34375ZM15.2188 5.75H11.625C11.6875 6.40625 11.75 7.09375 11.75 7.75C11.75 8.4375 11.6875 9.09375 11.625 9.75H15.2188C15.375 9.125 15.4688 8.46875 15.4688 7.75C15.4688 7.0625 15.375 6.40625 15.2188 5.75ZM3.75 7.75C3.75 7.09375 3.78125 6.40625 3.84375 5.75H0.25C0.09375 6.40625 0 7.0625 0 7.75C0 8.46875 0.09375 9.125 0.25 9.75H3.84375C3.78125 9.09375 3.75 8.4375 3.75 7.75ZM4.96875 10.75C5.4375 13.5625 6.5 15.5 7.75 15.5C8.96875 15.5 10.0625 13.5625 10.5 10.75H4.96875ZM9.9375 15.1875C12.1875 14.5312 14 12.875 14.875 10.75H11.5C11.25 12.5312 10.7188 14.125 9.9375 15.1875ZM0.59375 10.75C1.46875 12.875 3.28125 14.5312 5.53125 15.1875C4.75 14.125 4.25 12.5312 3.96875 10.75H0.59375Z" fill="#0D9B4D"/>
</svg>
